<svg xmlns="http://www.w3.org/2000/svg" version="1.1" xmlns:xlink="http://www.w3.org/1999/xlink" xmlns:svgjs="http://svgjs.com/svgjs" width="512" height="512" x="0" y="0" viewBox="0 0 64 64" style="enable-background:new 0 0 512 512" xml:space="preserve" class=""><g><path fill="#601143" d="M48.002 22.49h-40c-3.31 0-6 2.691-6 6v20c0 3.308 2.69 6 6 6h26.256c.647 4.082 3.98 6.524 8.327 6.995a1 1 0 0 0 .95-1.526c-.988-1.577-.978-3.673-.007-5.47h4.474c3.308 0 6-2.69 6-6v-20c0-3.308-2.692-6-6-6zm-3.465 22.12c.92.93-.486 2.336-1.414 1.415l-1.121-1.121v1.586a1 1 0 1 1-2 0v-1.586l-1.122 1.12a1 1 0 1 1-1.414-1.413l1.121-1.121h-1.585a1 1 0 1 1 0-2h1.585l-1.121-1.121a1 1 0 1 1 1.414-1.414l1.122 1.121V38.49a1 1 0 1 1 2 0v1.586l1.121-1.121a1 1 0 1 1 1.414 1.414l-1.121 1.12h1.586a1 1 0 1 1 0 2h-1.586l1.121 1.122zm-26 0c.92.93-.486 2.336-1.414 1.415l-1.121-1.121v1.586a1 1 0 1 1-2 0v-1.586l-1.122 1.12a1 1 0 1 1-1.414-1.413l1.121-1.121h-1.585a1 1 0 1 1 0-2h1.585l-1.121-1.121a1 1 0 1 1 1.414-1.414l1.122 1.121V38.49a1 1 0 1 1 2 0v1.586l1.121-1.121a1 1 0 1 1 1.414 1.414l-1.121 1.12h1.586a1 1 0 1 1 0 2h-1.586l1.121 1.122zm.965-11.12h-8c-3.295-.083-3.299-4.917 0-5h8c3.294.082 3.298 4.916 0 5zm12.5 10h-1.586l1.121 1.12a1 1 0 1 1-1.414 1.415l-1.121-1.122v1.587a1 1 0 1 1-2 0v-1.587l-1.122 1.122a1 1 0 1 1-1.414-1.414l1.121-1.121h-1.585a1 1 0 1 1 0-2h1.585l-1.121-1.121a1 1 0 1 1 1.414-1.414l1.122 1.121V38.49a1 1 0 1 1 2 0v1.586l1.121-1.121a1 1 0 1 1 1.414 1.414l-1.121 1.12h1.586c1.314.023 1.314 1.979 0 2z" data-original="#0e5952" class=""></path><path fill="#bebd75" d="M60.143 7.308C55.63.843 33.873 1.085 29.034 6.987c-2.826 7.845-2.633 14.965.131 20.065 2.63 4.827 8.196 8.932 15.6 10.403 15.43-4.22 20.329-14.84 15.378-30.147z" data-original="#f2be22" class=""></path><path fill="#601143" d="M49.002 17.84v-5.35c0-2.757-2.244-5-5-5s-5 2.243-5 5v5.35c-6.26 2.285-4.747 11.55 2 11.65h6c6.745-.1 8.26-9.365 2-11.65zm-7 4.65a1 1 0 0 1 1-1h2c1.314.021 1.314 1.978 0 2v2a1 1 0 1 1-2 0v-2a1 1 0 0 1-1-1zm-1-10c.104-3.957 5.896-3.955 6 0v5h-6z" data-original="#0e5952" class=""></path></g></svg>